Coordinates
version=1
nRows=14
nColumns=42
inDegrees=yes

Units are S.I. units (second, meters, Newtons, ...)
If the header above contains a line with 'inDegrees', this indicates whether rotational values are in degrees (yes) or radians (no).

endheader
time	pelvis_tilt	pelvis_list	pelvis_rotation	pelvis_tx	pelvis_ty	pelvis_tz	hip_flexion_r	hip_adduction_r	hip_rotation_r	knee_angle_r	knee_adduction_r	knee_angle_r_beta	ankle_angle_r	subtalar_angle_r	mtp_angle_r	hip_flexion_l	hip_adduction_l	hip_rotation_l	knee_angle_l	knee_adduction_l	knee_angle_l_beta	ankle_angle_l	subtalar_angle_l	mtp_angle_l	lumbar_extension	lumbar_bending	lumbar_rotation	arm_flex_r	arm_add_r	arm_rot_r	elbow_flex_r	pro_sup_r	wrist_flex_r	wrist_dev_r	arm_flex_l	arm_add_l	arm_rot_l	elbow_flex_l	pro_sup_l	wrist_flex_l	wrist_dev_l
      1.46000000	     -0.00611419	     -3.63032597	      4.32434821	     -0.64711690	      0.95142704	      0.30820270	     18.85213210	     -1.03617301	    -15.73902301	     12.12579421	      4.30930068	      0.21163503	      0.37577838	     14.40804379	     -7.55732888	    -12.41107578	     -4.95204510	    -12.07099509	     22.01112702	     -2.68246397	      0.38416664	     13.60367887	     25.50401002	     -7.55732888	     -5.98362447	      8.49782177	     -8.32123217	    -10.91266127	    -10.10513423	     -0.90568030	     22.77222504	     90.00000001	      0.00000000	      0.00000000	      5.52625427	    -19.66493735	     20.46855011	     46.26769248	     90.00000001	      0.00000000	      0.00000000
      1.47000000	     -0.37910090	     -4.12175007	      4.20004247	     -0.63585933	      0.95312880	      0.30944793	     18.50317349	     -0.35268743	    -14.76705632	     11.92786530	      4.45505229	      0.20818052	      0.28997099	     13.39215989	     -7.55464986	    -11.21758185	     -5.82536749	    -11.90931609	     24.46462817	     -2.66688744	      0.42698831	     11.47232221	     24.50623824	     -7.55464986	     -5.52590753	      9.10405605	     -8.03040701	    -10.64680377	    -10.12055469	     -1.37128129	     22.45552032	     90.00000001	      0.00000000	      0.00000000	      4.73490381	    -19.24688408	     20.10868916	     46.01837992	     90.00000001	      0.00000000	      0.00000000
      1.48000000	     -0.53985307	     -4.33374335	      4.01962009	     -0.62455091	      0.95515910	      0.31048939	     17.89845434	      0.00144943	    -14.04913390	     11.79263606	      4.65043605	      0.20582033	      0.53714851	     12.98838464	     -7.55235949	    -10.17764104	     -6.37041303	    -11.62375050	     26.96651856	     -2.62633951	      0.47065454	      8.74945475	     23.33363740	     -7.55235949	     -5.33700288	      9.42437612	     -7.64797779	    -10.43409666	    -10.18315851	     -1.67656854	     22.33330647	     90.00000001	      0.00000000	      0.00000000	      3.99638052	    -18.92518933	     20.08146275	     45.80021278	     90.00000001	      0.00000000	      0.00000000
      1.49000000	     -0.40036263	     -4.26277273	      3.75116632	     -0.61352120	      0.95747258	      0.31145342	     17.05304601	      0.00142634	    -13.58986134	     11.90117038	      4.93738057	      0.20771461	      0.95657286	     13.17672812	     -7.55170404	     -9.41604105	     -6.54725865	    -11.00590471	     29.44073271	     -2.50156252	      0.51383772	      6.26817537	     22.68028556	     -7.55170404	     -5.58344227	      9.44628726	     -7.06373197	    -10.27295829	    -10.28243675	     -1.71209217	     22.45934175	     90.00000001	      0.00000000	      0.00000000	      3.40831727	    -18.65706816	     20.08139300	     45.66345187	     90.00000001	      0.00000000	      0.00000000
      1.50000000	     -0.84580246	     -4.61724046	      3.61141487	     -0.60242874	      0.95905244	      0.31272030	     16.64473216	      0.64723152	    -13.19744711	     11.44582212	      4.83049298	      0.19976728	      1.25481433	     13.03087377	     -7.54978003	     -7.58622350	     -7.29613807	    -10.58287637	     32.55410908	     -2.40591904	      0.56817639	      2.72114412	     19.93091953	     -7.54978003	     -5.04697491	      9.85979388	     -6.79188108	    -10.00857516	    -10.37314800	     -1.92481110	     22.36710688	     90.00000001	      0.00000000	      0.00000000	      2.55671890	    -18.32481394	     19.98868844	     45.35553308	     90.00000001	      0.00000000	      0.00000000
      1.51000000	     -0.94356372	     -4.68706971	      3.39224599	     -0.59153488	      0.96086881	      0.31382285	     15.88876205	      0.93016865	    -12.85067270	     11.12013054	      4.87490495	      0.19408289	      1.61589318	     13.09143529	     -7.54818563	     -6.15951062	     -7.66844451	     -9.91359608	     35.46557105	     -2.20978276	      0.61899099	     -0.34358261	     17.70894956	     -7.54818563	     -4.99082977	      9.98503954	     -6.36050343	     -9.77181911	    -10.48972059	     -2.05836592	     22.51080477	     90.00000001	      0.00000000	      0.00000000	      1.84560027	    -18.06129133	     19.90512254	     45.12966112	     90.00000001	      0.00000000	      0.00000000
      1.52000000	     -1.00899559	     -4.73368457	      3.20860132	     -0.58102125	      0.96248106	      0.31490453	     15.11748867	      1.18333168	    -12.62138902	     10.78719019	      4.91480972	      0.18827199	      1.97994533	     13.23414144	     -7.54634596	     -4.61611064	     -7.98453415	     -9.00910884	     38.47322276	     -1.92592430	      0.67148441	     -3.04016898	     14.95093801	     -7.54634596	     -5.01085734	     10.07273888	     -5.92287502	     -9.50699879	    -10.59928623	     -2.11497350	     22.74126580	     90.00000001	      0.00000000	      0.00000000	      1.20024544	    -17.79262797	     19.76976793	     44.89424420	     90.00000001	      0.00000000	      0.00000000
      1.53000000	     -1.04250522	     -4.73897918	      3.04023079	     -0.57062952	      0.96391799	      0.31584549	     14.31756518	      1.36238808	    -12.56094378	     10.47343192	      4.95467673	      0.18279587	      2.41191248	     13.56878972	     -7.54428543	     -3.03232880	     -8.21249598	     -8.11498070	     41.42603680	     -1.65516444	      0.72302074	     -5.31555067	     11.99589233	     -7.54428543	     -5.07655500	     10.11575351	     -5.48955934	     -9.24686936	    -10.76883908	     -2.05018324	     23.04783738	     90.00000001	      0.00000000	      0.00000000	      0.59007862	    -17.52212916	     19.61685949	     44.67436132	     90.00000001	      0.00000000	      0.00000000
      1.54000000	     -0.99190357	     -4.73633792	      2.84214989	     -0.56037351	      0.96516158	      0.31695602	     13.46911614	      1.56444294	    -12.48912925	     10.21768909	      4.93757298	      0.17833232	      2.87800794	     14.16123545	     -7.54295957	     -1.46467510	     -8.46486775	     -7.70684254	     44.32240690	     -1.63301449	      0.77357193	     -7.01039219	      9.64494892	     -7.54295957	     -5.25274462	     10.11426580	     -5.05401126	     -8.95269027	    -10.92263896	     -1.92911492	     23.47527662	     90.00000001	      0.00000000	      0.00000000	     -0.01173901	    -17.32986055	     19.49367044	     44.45210737	     90.00000001	      0.00000000	      0.00000000
      1.55000000	     -1.00751462	     -4.71968510	      2.65852037	     -0.55044141	      0.96618434	      0.31801812	     12.75963759	      1.71316829	    -12.67365220	     10.06732716	      4.90671524	      0.17570801	      3.36126025	     14.80844667	     -7.54133576	      0.21438796	     -8.66102165	     -7.08455281	     47.09504133	     -1.46915738	      0.82196353	     -8.01633696	      6.72735116	     -7.54133576	     -5.37980313	     10.08243879	     -4.60446566	     -8.64678167	    -11.12401655	     -1.62602098	     23.92612499	     90.00000001	      0.00000000	      0.00000000	     -0.54732753	    -17.09552910	     19.29695116	     44.18250075	     90.00000001	      0.00000000	      0.00000000
      1.56000000	     -0.81264051	     -4.60382433	      2.51291904	     -0.54045381	      0.96727072	      0.31888968	     11.78124220	      1.70676542	    -12.70216339	      9.87931040	      4.98603623	      0.17242649	      3.99097913	     15.38415242	     -7.54043936	      1.67858932	     -8.70562695	     -7.17753313	     49.62830551	     -1.90238242	      0.86617733	     -8.22837924	      4.85822677	     -7.54043936	     -5.73341057	      9.94414271	     -4.20403089	     -8.28124164	    -11.30695692	     -1.44979340	     24.39931970	     90.00000001	      0.00000000	      0.00000000	     -1.04358977	    -16.90922425	     19.20057078	     43.89809657	     90.00000001	      0.00000000	      0.00000000
      1.57000000	     -0.81581697	     -4.43534684	      2.35673694	     -0.53093619	      0.96806017	      0.31985656	     11.25486837	      1.60870453	    -13.09883570	     10.11548850	      4.94584752	      0.17654858	      4.63993903	     16.51159822	     -7.53684981	      3.37696867	     -8.70343862	     -6.73818685	     52.02184869	     -1.80113918	      0.90795254	     -8.40921066	      1.83978222	     -7.53684981	     -5.90253571	      9.70779319	     -3.83924401	     -7.94199311	    -11.60640726	     -0.51284668	     24.99335115	     90.00000001	      0.00000000	      0.00000000	     -1.51640126	    -16.70323955	     18.93651516	     43.52278323	     90.00000001	      0.00000000	      0.00000000
      1.58000000	     -0.57281698	     -4.28907977	      2.19883044	     -0.52117941	      0.96906970	      0.32082720	     10.29655019	      1.57321679	    -12.97297241	     10.02077283	      5.00957677	      0.17489548	      5.23305513	     16.84499251	     -7.53618280	      4.76268177	     -8.73533486	     -7.22422973	     54.05397614	     -2.41964095	      0.94341986	     -7.65838340	      0.70144405	     -7.53618280	     -6.31946719	      9.48813480	     -3.43026533	     -7.50081224	    -11.76349921	     -0.44287113	     25.45133113	     90.00000001	      0.00000000	      0.00000000	     -1.93693802	    -16.55739652	     18.90700503	     43.12271882	     90.00000001	      0.00000000	      0.00000000
      1.59000000	     -0.35873374	     -4.12532335	      2.03428238	     -0.51171036	      0.97004109	      0.32183516	      9.43339463	      1.52146643	    -12.74296665	     10.00160561	      5.04832272	      0.17456095	      5.79772606	     17.11551291	     -7.53562541	      6.18421790	     -8.74706227	     -7.66896825	     55.84019097	     -2.95677158	      0.97459519	     -6.74058212	     -0.32518239	     -7.53562541	     -6.73039107	      9.21769139	     -3.04060039	     -7.00237757	    -11.90026051	     -0.32700084	     25.92720244	     90.00000001	      0.00000000	      0.00000000	     -2.32000309	    -16.40564913	     18.87549329	     42.66892465	     90.00000001	      0.00000000	      0.00000000
